<?xml version="1.0" encoding="UTF-8"?>
<!DOCTYPE svg PUBLIC "-//W3C//DTD SVG 1.1//EN" "http://www.w3.org/Graphics/SVG/1.1/DTD/svg11.dtd">
<svg xmlns="http://www.w3.org/2000/svg" version="1.1" width="356px" height="139px" style="shape-rendering:geometricPrecision; text-rendering:geometricPrecision; image-rendering:optimizeQuality; fill-rule:evenodd; clip-rule:evenodd" xmlns:xlink="http://www.w3.org/1999/xlink">
<g><path style="opacity:0.91" fill="#3e6aaa" d="M 189.5,-0.5 C 191.833,-0.5 194.167,-0.5 196.5,-0.5C 195.179,3.7565 194.179,8.08984 193.5,12.5C 157.704,12.804 122.704,18.1373 88.5,28.5C 88.1667,28.1667 87.8333,27.8333 87.5,27.5C 119.784,11.9288 153.784,2.59548 189.5,-0.5 Z"/></g>
<g><path style="opacity:0.91" fill="#3c5b96" d="M 196.5,-0.5 C 206.167,-0.5 215.833,-0.5 225.5,-0.5C 234.724,0.655314 244.057,1.98865 253.5,3.5C 252.122,7.72054 251.122,12.0539 250.5,16.5C 231.578,14.1298 212.578,12.7965 193.5,12.5C 194.179,8.08984 195.179,3.7565 196.5,-0.5 Z"/></g>
<g><path style="opacity:0.902" fill="#3b5088" d="M 253.5,3.5 C 266.617,5.94246 279.284,9.60913 291.5,14.5C 290.94,18.1932 290.273,21.8598 289.5,25.5C 276.643,21.862 263.643,18.862 250.5,16.5C 251.122,12.0539 252.122,7.72054 253.5,3.5 Z"/></g>
<g><path style="opacity:0.9" fill="#f69233" d="M 242.5,21.5 C 209.167,22.8333 175.833,22.8333 142.5,21.5C 175.838,16.1998 209.171,16.1998 242.5,21.5 Z"/></g>
<g><path style="opacity:0.863" fill="#3a477c" d="M 291.5,14.5 C 302.268,17.8814 312.602,22.3814 322.5,28C 333.67,35.0221 344.67,42.1888 355.5,49.5C 355.5,50.1667 355.5,50.8333 355.5,51.5C 334.416,40.6289 312.416,31.9622 289.5,25.5C 290.273,21.8598 290.94,18.1932 291.5,14.5 Z"/></g>
<g><path style="opacity:0.949" fill="#f68c33" d="M 142.5,21.5 C 175.833,22.8333 209.167,22.8333 242.5,21.5C 249.762,22.0868 256.762,23.4202 263.5,25.5C 216.167,25.5 168.833,25.5 121.5,25.5C 128.237,23.4299 135.237,22.0966 142.5,21.5 Z"/></g>
<g><path style="opacity:0.971" fill="#f58633" d="M 121.5,25.5 C 168.833,25.5 216.167,25.5 263.5,25.5C 267.761,25.8984 271.761,26.8984 275.5,28.5C 219.5,28.5 163.5,28.5 107.5,28.5C 111.921,26.8985 116.588,25.8985 121.5,25.5 Z"/></g>
<g><path style="opacity:0.936" fill="#f47d34" d="M 107.5,28.5 C 163.5,28.5 219.5,28.5 275.5,28.5C 293.589,33.0471 310.922,39.5471 327.5,48C 286.899,37.6054 245.566,32.1054 203.5,31.5C 192.173,32.087 180.839,32.4204 169.5,32.5C 144.167,32.5 118.833,32.5 93.5,32.5C 97.8949,30.5646 102.562,29.2313 107.5,28.5 Z"/></g>
<g><path style="opacity:0.943" fill="#f37234" d="M 93.5,32.5 C 118.833,32.5 144.167,32.5 169.5,32.5C 139.678,35.3024 110.011,39.9691 80.5,46.5C 71.6506,46.8264 62.9839,46.493 54.5,45.5C 67.1551,40.1705 80.1551,35.8372 93.5,32.5 Z"/></g>
<g><path style="opacity:0.821" fill="#f05035" d="M 54.5,45.5 C 62.9839,46.493 71.6506,46.8264 80.5,46.5C 53.1008,54.0775 26.1008,63.0775 -0.5,73.5C -0.5,72.8333 -0.5,72.1667 -0.5,71.5C 17.4396,62.0305 35.7729,53.3639 54.5,45.5 Z"/></g>
<g><path style="opacity:0.933" fill="#3b548d" d="M 305.5,74.5 C 304.503,77.817 303.503,81.1503 302.5,84.5C 300.876,84.3601 299.71,85.0267 299,86.5C 297.165,96.8464 295.331,107.18 293.5,117.5C 289.167,117.5 284.833,117.5 280.5,117.5C 282.037,106.482 283.703,95.4824 285.5,84.5C 283.396,84.7989 281.396,84.4656 279.5,83.5C 280.213,81.2241 280.713,78.8907 281,76.5C 283.007,75.3313 285.173,74.6646 287.5,74.5C 290.115,59.6837 298.782,54.1837 313.5,58C 314.428,58.3879 315.095,59.0546 315.5,60C 314.692,62.7609 313.692,65.4276 312.5,68C 309.54,67.6799 306.54,67.6799 303.5,68C 301.081,69.5088 300.081,71.6755 300.5,74.5C 302.167,74.5 303.833,74.5 305.5,74.5 Z"/></g>
<g><path style="opacity:0.811" fill="#ee4b36" d="M 201.5,113.5 C 202.167,113.5 202.5,113.833 202.5,114.5C 202.5,115.833 202.5,117.167 202.5,118.5C 198.741,119.908 195.075,119.742 191.5,118C 190.07,116.093 189.404,113.926 189.5,111.5C 192.225,94.8162 195.058,78.1496 198,61.5C 199.754,59.75 201.921,59.0833 204.5,59.5C 201.823,76.7174 198.823,93.8841 195.5,111C 195.645,111.772 195.978,112.439 196.5,113C 198.134,113.494 199.801,113.66 201.5,113.5 Z"/></g>
<g><path style="opacity:0.952" fill="#3d5b96" d="M 86.5,58.5 C 93.5374,60.4466 94.8707,64.28 90.5,70C 85.4386,72.8339 81.7719,71.6672 79.5,66.5C 80.485,62.5228 82.8183,59.8561 86.5,58.5 Z"/></g>
<g><path style="opacity:1" fill="#3c5a95" d="M 135.5,58.5 C 141.356,58.854 143.523,61.854 142,67.5C 137.168,73.104 133.001,72.7706 129.5,66.5C 130.401,62.9421 132.401,60.2754 135.5,58.5 Z"/></g>
<g><path style="opacity:0.806" fill="#f05d35" d="M 165.5,94.5 C 165.5,96.1667 165.5,97.8333 165.5,99.5C 162.359,103.69 162.025,108.023 164.5,112.5C 165.736,113.246 167.07,113.579 168.5,113.5C 168.5,115.5 168.5,117.5 168.5,119.5C 164.413,119.706 160.913,118.373 158,115.5C 152.682,120.35 147.015,120.683 141,116.5C 139.994,114.466 139.494,112.3 139.5,110C 140.633,100.531 142.3,91.198 144.5,82C 142.19,81.5034 139.857,81.3367 137.5,81.5C 137.5,80.5 137.5,79.5 137.5,78.5C 139.74,77.027 142.24,76.027 145,75.5C 146.145,72.5682 146.978,69.5682 147.5,66.5C 149.167,66.5 150.833,66.5 152.5,66.5C 152.726,69.2492 152.393,71.9159 151.5,74.5C 155.107,75.4892 158.774,75.8226 162.5,75.5C 162.643,77.2624 162.309,78.9291 161.5,80.5C 157.893,81.4892 154.226,81.8226 150.5,81.5C 149.051,90.8606 147.384,100.194 145.5,109.5C 145.529,111.029 146.196,112.196 147.5,113C 150.531,113.495 153.531,113.329 156.5,112.5C 154.727,104.047 157.727,98.0468 165.5,94.5 Z"/></g>
<g><path style="opacity:0.926" fill="#3f71b2" d="M 222.5,89.5 C 222.106,93.3472 221.106,97.0139 219.5,100.5C 206.626,96.8218 203.959,89.3218 211.5,78C 222.027,70.6137 232.361,70.7804 242.5,78.5C 240.466,81.3686 237.966,83.7019 235,85.5C 230.928,83.5112 226.761,83.1779 222.5,84.5C 221.713,85.2421 221.047,86.0754 220.5,87C 221.381,87.7083 222.047,88.5416 222.5,89.5 Z"/></g>
<g><path style="opacity:0.907" fill="#3d609c" d="M 242.5,116.5 C 245.765,108.805 248.432,100.805 250.5,92.5C 254.9,90.8958 259.566,90.2291 264.5,90.5C 264.917,87.9208 264.25,85.7542 262.5,84C 258.37,83.3278 254.37,83.8278 250.5,85.5C 248.246,83.8447 246.579,81.678 245.5,79C 245.645,78.228 245.978,77.5613 246.5,77C 255.24,72.1382 264.24,71.4715 273.5,75C 278.153,78.7885 279.653,83.6218 278,89.5C 276.174,98.791 274.674,108.124 273.5,117.5C 268.678,118.065 264.178,117.399 260,115.5C 257.091,117.858 253.758,118.858 250,118.5C 247.134,118.7 244.634,118.033 242.5,116.5 Z M 255.5,98.5 C 264.431,97.7921 265.431,100.959 258.5,108C 255.407,109.026 253.073,108.193 251.5,105.5C 252.094,102.692 253.427,100.359 255.5,98.5 Z"/></g>
<g><path style="opacity:0.819" fill="#ee5136" d="M 168.5,119.5 C 168.5,117.5 168.5,115.5 168.5,113.5C 172.587,113.706 176.087,112.373 179,109.5C 180.606,105.969 181.772,102.302 182.5,98.5C 176.62,96.9926 170.953,97.3259 165.5,99.5C 165.5,97.8333 165.5,96.1667 165.5,94.5C 165.918,93.7784 166.584,93.2784 167.5,93C 172.823,92.5006 178.156,92.334 183.5,92.5C 184.821,88.769 184.488,85.269 182.5,82C 176.695,80.0874 171.028,80.5874 165.5,83.5C 162.582,80.7693 162.915,78.6026 166.5,77C 172.43,74.482 178.43,74.1486 184.5,76C 188.802,77.9351 190.802,81.2684 190.5,86C 188.669,96.8185 187.002,107.652 185.5,118.5C 183.076,118.808 180.743,118.474 178.5,117.5C 179.326,116.549 179.492,115.549 179,114.5C 176.194,117.603 172.694,119.27 168.5,119.5 Z"/></g>
<g><path style="opacity:0.868" fill="#3a4d83" d="M 331.5,73.5 C 330.558,76.6552 329.224,79.6552 327.5,82.5C 321.868,83.4586 318.868,86.4586 318.5,91.5C 315.713,99.0289 313.213,106.696 311,114.5C 310.617,115.056 310.117,115.389 309.5,115.5C 304.644,111.944 302.644,107.11 303.5,101C 303.199,95.2411 304.532,89.9077 307.5,85C 305.866,84.5065 304.199,84.3398 302.5,84.5C 303.503,81.1503 304.503,77.817 305.5,74.5C 306.833,74.5 308.167,74.5 309.5,74.5C 308.737,77.1411 308.57,79.8078 309,82.5C 314.982,75.073 322.482,72.073 331.5,73.5 Z"/></g>
<g><path style="opacity:0.829" fill="#f58633" d="M 57.5,117.5 C 57.7678,115.901 57.4345,114.568 56.5,113.5C 59.3859,112.121 61.8859,110.121 64,107.5C 65.1667,101.167 66.3333,94.8333 67.5,88.5C 65.6659,80.9155 60.9993,78.5822 53.5,81.5C 53.3713,79.7839 53.038,78.1172 52.5,76.5C 58.6887,73.437 64.1887,74.437 69,79.5C 70.2766,72.8396 71.4433,66.1729 72.5,59.5C 74.5,59.5 76.5,59.5 78.5,59.5C 75.5515,78.5244 72.3848,97.5244 69,116.5C 67.2458,118.25 65.0792,118.917 62.5,118.5C 62.719,117.325 62.3857,116.325 61.5,115.5C 60.3777,116.63 59.0443,117.297 57.5,117.5 Z"/></g>
<g><path style="opacity:0.953" fill="#394479" d="M 331.5,73.5 C 339.741,74.9208 344.075,79.9208 344.5,88.5C 343.88,92.2196 343.047,95.8863 342,99.5C 333.585,100.483 325.085,100.817 316.5,100.5C 316.808,105.474 319.474,108.141 324.5,108.5C 327.931,107.809 331.264,106.809 334.5,105.5C 336.086,107.67 337.42,110.004 338.5,112.5C 335.652,115.093 332.319,116.926 328.5,118C 323.5,118.667 318.5,118.667 313.5,118C 311.934,117.392 310.6,116.558 309.5,115.5C 310.117,115.389 310.617,115.056 311,114.5C 313.213,106.696 315.713,99.0289 318.5,91.5C 322.833,91.5 327.167,91.5 331.5,91.5C 331.682,87.6715 330.348,84.6715 327.5,82.5C 329.224,79.6552 330.558,76.6552 331.5,73.5 Z"/></g>
<g><path style="opacity:0.796" fill="#f16535" d="M 137.5,78.5 C 134.754,91.6344 132.421,104.968 130.5,118.5C 128.076,118.808 125.743,118.474 123.5,117.5C 126.318,103.907 128.818,90.2399 131,76.5C 133.041,75.5769 135.208,75.2436 137.5,75.5C 137.5,76.5 137.5,77.5 137.5,78.5 Z"/></g>
<g><path style="opacity:0.855" fill="#f69632" d="M 52.5,76.5 C 53.038,78.1172 53.3713,79.7839 53.5,81.5C 46.0127,89.4667 43.5127,98.8001 46,109.5C 46.4652,110.931 47.2986,112.097 48.5,113C 51.146,113.497 53.8127,113.664 56.5,113.5C 57.4345,114.568 57.7678,115.901 57.5,117.5C 49.0914,121.416 42.9247,119.083 39,110.5C 37.2396,100.799 38.9063,91.7985 44,83.5C 46.4356,80.5532 49.2689,78.2199 52.5,76.5 Z"/></g>
<g><path style="opacity:0.793" fill="#f47e33" d="M 81.5,75.5 C 83.5,75.5 85.5,75.5 87.5,75.5C 85.2956,89.8553 82.9622,104.189 80.5,118.5C 78.5,118.5 76.5,118.5 74.5,118.5C 76.5088,104.114 78.8422,89.7802 81.5,75.5 Z"/></g>
<g><path style="opacity:0.811" fill="#f26f34" d="M 106.5,74.5 C 111.436,74.3105 115.602,75.9772 119,79.5C 120.276,75.3046 122.776,74.4713 126.5,77C 123.511,92.0955 120.678,107.262 118,122.5C 111.456,135.793 101.456,139.126 88,132.5C 87.8283,127.456 89.995,126.289 94.5,129C 103.461,131.998 109.294,129.165 112,120.5C 112.798,118.741 112.631,117.074 111.5,115.5C 104.281,121.153 97.4477,120.82 91,114.5C 86.0384,100.513 88.8717,88.3467 99.5,78C 101.925,76.7874 104.259,75.6207 106.5,74.5 Z M 105.5,80.5 C 112.367,79.2465 116.367,81.9132 117.5,88.5C 116.549,94.8736 115.382,101.207 114,107.5C 109.384,113.537 103.717,114.87 97,111.5C 92.8245,99.1993 95.6578,88.8659 105.5,80.5 Z"/></g>
<g><path style="opacity:0.937" fill="#3f6cac" d="M 222.5,89.5 C 227.061,90.2983 231.394,91.7983 235.5,94C 237.543,95.8114 239.043,97.978 240,100.5C 242.242,96.0808 245.742,93.4141 250.5,92.5C 248.432,100.805 245.765,108.805 242.5,116.5C 239.438,114.377 237.938,111.377 238,107.5C 235.532,112.989 231.365,116.489 225.5,118C 217.357,119.452 209.69,118.286 202.5,114.5C 202.5,113.833 202.167,113.5 201.5,113.5C 202.669,109.656 205.002,106.656 208.5,104.5C 213.046,108.369 218.046,109.202 223.5,107C 224.167,106 224.833,105 225.5,104C 223.868,102.18 221.868,101.014 219.5,100.5C 221.106,97.0139 222.106,93.3472 222.5,89.5 Z"/></g>
<g><path style="opacity:0.57" fill="#2c3090" d="M 283.5,122.5 C 286.018,123.694 286.018,124.86 283.5,126C 284,126.5 284.5,127 285,127.5C 289.394,124.691 291.56,126.025 291.5,131.5C 285.676,131.347 285.343,132.013 290.5,133.5C 284.859,137.053 282.359,135.387 283,128.5C 282.338,130.813 281.838,133.146 281.5,135.5C 280.5,135.5 279.5,135.5 278.5,135.5C 279.167,133.181 279.334,130.847 279,128.5C 278.023,130.74 277.523,133.073 277.5,135.5C 274.635,135.945 272.135,135.278 270,133.5C 267.743,136.119 265.577,136.119 263.5,133.5C 264.729,132.719 266.062,132.219 267.5,132C 266.552,131.517 265.552,131.351 264.5,131.5C 263.833,128.167 265.167,126.167 268.5,125.5C 270.833,126.833 273.167,126.833 275.5,125.5C 276.478,125.977 277.311,126.643 278,127.5C 279.847,125.754 281.681,124.088 283.5,122.5 Z M 267.5,129.5 C 269.966,128.366 272.633,128.199 275.5,129C 272.794,130.23 270.127,130.396 267.5,129.5 Z"/></g>
<g><path style="opacity:0.588" fill="#2d3090" d="M 209.5,123.5 C 210.5,123.5 211.5,123.5 212.5,123.5C 213.162,127.466 213.495,131.466 213.5,135.5C 212.5,135.5 211.5,135.5 210.5,135.5C 210.5,134.5 210.5,133.5 210.5,132.5C 208.362,132.703 206.695,133.703 205.5,135.5C 205.167,135 204.833,134.5 204.5,134C 206.044,130.413 207.711,126.913 209.5,123.5 Z"/></g>
<g><path style="opacity:0.582" fill="#2d3090" d="M 226.5,128.5 C 225.549,129.919 225.216,131.585 225.5,133.5C 223.284,135.621 220.784,135.954 218,134.5C 216.893,130.384 218.226,127.384 222,125.5C 222.333,125.833 222.667,126.167 223,126.5C 223.483,125.552 223.649,124.552 223.5,123.5C 224.5,123.5 225.5,123.5 226.5,123.5C 226.5,125.167 226.5,126.833 226.5,128.5 Z M 221.5,128.5 C 222.782,129.708 222.782,131.042 221.5,132.5C 220.374,131.192 220.374,129.858 221.5,128.5 Z"/></g>
<g><path style="opacity:0.516" fill="#2d3091" d="M 227.5,123.5 C 228.675,123.281 229.675,123.614 230.5,124.5C 228.948,125.798 227.948,125.465 227.5,123.5 Z"/></g>
<g><path style="opacity:0.514" fill="#2d3091" d="M 240.5,123.5 C 241.675,123.281 242.675,123.614 243.5,124.5C 241.948,125.798 240.948,125.465 240.5,123.5 Z"/></g>
<g><path style="opacity:0.56" fill="#2d3190" d="M 255.5,132.5 C 256.657,129.727 257.324,126.727 257.5,123.5C 258.5,123.5 259.5,123.5 260.5,123.5C 260.38,126.48 259.713,129.313 258.5,132C 259.956,132.423 260.456,133.256 260,134.5C 257.499,136.056 255.999,135.389 255.5,132.5 Z"/></g>
<g><path style="opacity:0.585" fill="#2c3090" d="M 315.5,123.5 C 316.675,123.281 317.675,123.614 318.5,124.5C 316.229,130.001 317.562,131.501 322.5,129C 317.46,128.256 317.293,127.09 322,125.5C 324.646,128.266 325.146,131.433 323.5,135C 320.937,135.918 318.77,135.418 317,133.5C 313.706,136.311 310.706,135.978 308,132.5C 306.883,134.124 305.383,135.124 303.5,135.5C 300.969,135.045 298.469,134.712 296,134.5C 295.843,132.005 295.676,129.672 295.5,127.5C 297.527,123.639 299.694,123.639 302,127.5C 305.795,124.582 308.128,125.582 309,130.5C 309.463,127.143 311.13,125.81 314,126.5C 314.513,125.473 315.013,124.473 315.5,123.5 Z M 298.5,128.5 C 299.586,128.62 300.253,129.287 300.5,130.5C 300.167,131.167 299.833,131.833 299.5,132.5C 298.571,131.311 298.238,129.978 298.5,128.5 Z M 304.5,128.5 C 305.782,129.708 305.782,131.042 304.5,132.5C 303.374,131.192 303.374,129.858 304.5,128.5 Z M 312.5,128.5 C 314.807,129.405 314.807,130.738 312.5,132.5C 311.708,131.3 311.708,129.967 312.5,128.5 Z"/></g>
<g><path style="opacity:0.529" fill="#2c3090" d="M 326.5,138.5 C 325.5,138.5 324.5,138.5 323.5,138.5C 323.9,136.623 324.9,135.123 326.5,134C 325.678,131.566 325.344,129.066 325.5,126.5C 326.5,126.5 327.5,126.5 328.5,126.5C 328.343,127.873 328.51,129.207 329,130.5C 330.607,127.65 332.774,125.317 335.5,123.5C 336.072,126.977 336.072,130.311 335.5,133.5C 334.537,135.49 333.204,135.823 331.5,134.5C 332.428,133.232 332.595,131.899 332,130.5C 330.694,133.621 328.86,136.287 326.5,138.5 Z"/></g>
<g><path style="opacity:0.574" fill="#2c3090" d="M 255.5,132.5 C 254.842,133.398 254.176,134.398 253.5,135.5C 250.236,134.879 246.903,134.879 243.5,135.5C 243.466,126.276 242.8,126.276 241.5,135.5C 240.5,135.5 239.5,135.5 238.5,135.5C 239.159,132.545 239.492,129.545 239.5,126.5C 241.912,126.669 244.079,126.003 246,124.5C 247.95,126.571 250.117,126.905 252.5,125.5C 255.029,127.063 256.029,129.396 255.5,132.5 Z M 248.5,127.5 C 249.766,128.09 251.099,128.59 252.5,129C 250.152,129.346 248.319,130.513 247,132.5C 246.36,130.457 246.86,128.79 248.5,127.5 Z"/></g>
<g><path style="opacity:0.601" fill="#2c3090" d="M 235.5,138.5 C 233.5,138.5 231.5,138.5 229.5,138.5C 229.36,136.876 230.027,135.71 231.5,135C 230.577,132.959 230.244,130.792 230.5,128.5C 232.842,125.968 235.509,125.301 238.5,126.5C 238.504,130.836 237.504,134.836 235.5,138.5 Z M 234.5,128.5 C 235.797,129.849 235.63,131.182 234,132.5C 233.421,131.072 233.588,129.738 234.5,128.5 Z"/></g>
<g><path style="opacity:0.545" fill="#2c3090" d="M 230.5,128.5 C 229.717,130.343 229.05,132.343 228.5,134.5C 226.948,135.798 225.948,135.465 225.5,133.5C 226.451,132.081 226.784,130.415 226.5,128.5C 227.156,127.722 227.989,127.056 229,126.5C 230.03,126.836 230.53,127.503 230.5,128.5 Z"/></g>
</svg>
